<svg data-v-423bf9ae="" xmlns="http://www.w3.org/2000/svg" viewBox="0 0 96.32403570277098 60" class="font"><!----><!----><!----><g data-v-423bf9ae="" id="8a452a9d-51ab-4084-81d7-3f7a0b1d5f98" fill="white" transform="matrix(5.696276556591,0,0,5.696276556591,-6.37983063412878,-1.2728915608955589)"><path d="M5.11 8.78L5.11 8.78C5.52 8.78 5.87 8.62 6.12 8.37C7.01 7.49 6.41 5.96 5.11 5.96L3.47 5.96C2.86 5.96 2.86 6.89 3.47 6.89L5.11 6.89C5.40 6.89 5.60 7.08 5.60 7.36C5.60 8.29 4.12 7.39 4.12 8.30C4.12 8.88 4.77 8.78 5.11 8.78ZM3.47 3.14L3.47 3.14L5.11 3.14C5.40 3.14 5.60 3.35 5.60 3.61C5.60 4.19 4.97 4.09 4.59 4.09C3.98 4.09 3.98 5.03 4.59 5.03C5.17 5.03 5.64 5.08 6.12 4.62C7.01 3.75 6.41 2.20 5.11 2.20L3.47 2.20C2.86 2.20 2.86 3.14 3.47 3.14ZM2.06 10.19L2.06 10.19L2.06 1.26L5.28 1.26C6.57 1.26 7.59 2.32 7.59 3.61C7.59 5.08 6.47 5.25 7.01 5.84C8.25 7.10 7.43 9.72 5.29 9.72L3.47 9.72C2.86 9.72 2.86 10.67 3.47 10.67L5.29 10.67C7.91 10.67 9.44 7.64 7.95 5.49C8.36 4.90 8.53 4.24 8.53 3.58C8.53 1.82 7.20 0.31 5.28 0.31L1.58 0.31C1.33 0.31 1.12 0.53 1.12 0.78L1.12 10.19C1.12 10.81 2.06 10.81 2.06 10.19ZM18.03 9.63L18.03 9.63L18.03 5.49C18.03 4.87 17.09 4.87 17.09 5.49L17.09 9.35C14.39 10.68 10.86 9.10 10.81 5.57C10.75 2.23 13.86 0.39 17.15 1.46L17.15 1.46C17.81 1.68 18.10 0.78 17.43 0.57C13.51-0.69 9.80 1.60 9.87 5.59C9.94 9.84 14.28 11.97 17.78 10.04C17.93 9.95 18.03 9.80 18.03 9.63ZM17.29 2.51L17.29 2.51C16.66 2.24 15.95 2.11 15.12 2.14C10.68 2.30 10.88 8.83 15.13 8.83C15.48 8.83 16.13 8.82 16.13 8.32L16.13 5.49C16.13 4.87 15.18 4.87 15.18 5.49L15.18 7.88C12.05 7.91 11.96 3.19 15.15 3.07C15.82 3.05 16.41 3.15 16.91 3.37C17.47 3.61 17.85 2.77 17.29 2.51Z"></path></g><!----><!----></svg>