<svg data-v-423bf9ae="" xmlns="http://www.w3.org/2000/svg" viewBox="0 0 197 90" class="iconLeft"><!----><!----><!----><g data-v-423bf9ae="" id="e8da7ff0-1197-4361-a6b5-f9097541f07e" fill="#241030" transform="matrix(5.7915059834320255,0,0,5.7915059834320255,103.51351911254349,13.204631283584057)"><path d="M5.11 8.78L5.11 8.78C5.52 8.78 5.87 8.62 6.12 8.37C7.01 7.49 6.41 5.96 5.11 5.96L3.47 5.96C2.86 5.96 2.86 6.89 3.47 6.89L5.11 6.89C5.40 6.89 5.60 7.08 5.60 7.36C5.60 8.29 4.12 7.39 4.12 8.30C4.12 8.88 4.77 8.78 5.11 8.78ZM3.47 3.14L3.47 3.14L5.11 3.14C5.40 3.14 5.60 3.35 5.60 3.61C5.60 4.19 4.97 4.09 4.59 4.09C3.98 4.09 3.98 5.03 4.59 5.03C5.17 5.03 5.64 5.08 6.12 4.62C7.01 3.75 6.41 2.20 5.11 2.20L3.47 2.20C2.86 2.20 2.86 3.14 3.47 3.14ZM2.06 10.19L2.06 10.19L2.06 1.26L5.28 1.26C6.57 1.26 7.59 2.32 7.59 3.61C7.59 5.08 6.47 5.25 7.01 5.84C8.25 7.10 7.43 9.72 5.29 9.72L3.47 9.72C2.86 9.72 2.86 10.67 3.47 10.67L5.29 10.67C7.91 10.67 9.44 7.64 7.95 5.49C8.36 4.90 8.53 4.24 8.53 3.58C8.53 1.82 7.20 0.31 5.28 0.31L1.58 0.31C1.33 0.31 1.12 0.53 1.12 0.78L1.12 10.19C1.12 10.81 2.06 10.81 2.06 10.19ZM15.62 2.23L15.62 2.23L12.66 2.23C12.39 2.23 12.18 2.42 12.18 2.69L12.18 4.56C12.18 4.82 12.39 5.03 12.66 5.03L14.76 5.03C15.01 5.03 15.22 4.82 15.22 4.56C15.22 4.30 15.01 4.09 14.76 4.09L13.12 4.09L13.12 3.15L15.62 3.15C15.89 3.15 16.10 2.94 16.10 2.69C16.10 2.42 15.89 2.23 15.62 2.23ZM14.76 5.96L14.76 5.96L12.66 5.96C12.39 5.96 12.18 6.17 12.18 6.43L12.18 10.18C12.18 10.43 12.39 10.64 12.66 10.64C12.91 10.64 13.12 10.43 13.12 10.18L13.12 6.90L14.76 6.90C15.01 6.90 15.22 6.69 15.22 6.43C15.22 6.17 15.01 5.96 14.76 5.96ZM11.24 10.18L11.24 10.18L11.24 1.29L15.62 1.29C15.89 1.29 16.10 1.08 16.10 0.81C16.10 0.56 15.89 0.35 15.62 0.35L10.78 0.35C10.51 0.35 10.32 0.56 10.32 0.81L10.32 10.18C10.32 10.43 10.51 10.64 10.78 10.64C11.03 10.64 11.24 10.43 11.24 10.18Z"></path></g><defs data-v-423bf9ae=""><linearGradient data-v-423bf9ae="" gradientTransform="rotate(25)" id="ccd257e4-beda-46d0-96eb-e90f4c297a08" x1="0%" y1="0%" x2="100%" y2="0%"><stop data-v-423bf9ae="" offset="0%" style="stop-color: rgb(73, 36, 126); stop-opacity: 1;"></stop><stop data-v-423bf9ae="" offset="100%" style="stop-color: rgb(170, 73, 199); stop-opacity: 1;"></stop></linearGradient></defs><g data-v-423bf9ae="" id="9b82fa50-614f-4568-9ed0-7c25701b8663" transform="matrix(2.8125,0,0,2.8125,-4.26250034570694,-5.625)" stroke="none" fill="url(#ccd257e4-beda-46d0-96eb-e90f4c297a08)"><switch><g><path d="M30.8 16.7c.5 0 1-.4 1-1v-2.2c1.2-.4 2-1.5 2-2.8 0-1.7-1.3-3-3-3s-3 1.3-3 3c0 1.3.8 2.4 2 2.8v1.2h-6V13c0-.5-.5-1-1-1h-.3V7.8c1.2-.4 2-1.5 2-2.8 0-1.6-1.3-3-3-3s-3 1.4-3 3c0 1.3.8 2.4 2 2.8V12h-4V6.1c0-.6-.4-1-1-1h-4.2c-.4-1.2-1.5-2-2.8-2-1.6 0-3 1.4-3 3 0 1.7 1.4 3 3 3 1.3 0 2.4-.8 2.8-2h3.2V12h-1.7c-.5 0-1 .5-1 1v3.5h-6v-.3c1.2-.4 2-1.5 2-2.8 0-1.6-1.3-3-3-3s-3 1.4-3 3c0 1.3.8 2.4 2 2.8v1.3c0 .5.5 1 1 1h7V22H7.6c-.4-1.2-1.5-2-2.8-2-1.7 0-3 1.4-3 3 0 1.7 1.3 3 3 3 1.3 0 2.4-.8 2.8-2h6.9v4.9h-3.2c-.4-1.2-1.5-2-2.8-2-1.6 0-3 1.3-3 3s1.4 3 3 3c1.3 0 2.4-.8 2.8-2h4.2c.6 0 1-.4 1-1V24h4v4.2c-1.2.4-2 1.5-2 2.8 0 1.7 1.3 3 3 3s3-1.3 3-3c0-1.3-.8-2.4-2-2.8V24h.3c.5 0 1-.4 1-1v-1.9h4.9v5.1c-1.2.4-2 1.5-2 2.8 0 1.7 1.3 3 3 3s3-1.3 3-3c0-1.3-.8-2.4-2-2.8v-6.1c0-.6-.5-1-1-1h-5.9v-2.4h7zm0-7c.5 0 1 .5 1 1 0 .6-.5 1-1 1s-1-.4-1-1 .4-1 1-1zM8.5 7.1c-.5 0-1-.4-1-1s.5-1 1-1c.6 0 1 .4 1 1s-.5 1-1 1zm-3.7 7.2c-.5 0-1-.4-1-1s.5-1 1-1 1 .4 1 1-.5 1-1 1zm0 9.7c-.5 0-1-.4-1-1 0-.5.5-1 1-1s1 .5 1 1-.5 1-1 1zm3.7 6.9c-.5 0-1-.4-1-1 0-.5.5-1 1-1 .6 0 1 .5 1 1 0 .6-.5 1-1 1zm5.3-8.9v-8h8v8h-8zm7.7 10c-.5 0-1-.4-1-1 0-.5.5-1 1-1 .6 0 1 .5 1 1s-.5 1-1 1zm0-26c-.5 0-1-.4-1-1 0-.5.5-1 1-1 .6 0 1 .5 1 1s-.5 1-1 1zm8.2 22c.5 0 1 .5 1 1 0 .6-.5 1-1 1-.6 0-1-.4-1-1 0-.5.4-1 1-1z"></path></g></switch></g><!----></svg>