<svg data-v-423bf9ae="" xmlns="http://www.w3.org/2000/svg" viewBox="0 0 86.7567625038812 60" class="font"><!----><!----><!----><g data-v-423bf9ae="" id="4cbe72bf-28e8-4f26-8f39-510196ad2ef1" fill="white" transform="matrix(5.7915059834320255,0,0,5.7915059834320255,-6.486488516851047,-1.7953668090673105)"><path d="M5.11 8.78L5.11 8.78C5.52 8.78 5.87 8.62 6.12 8.37C7.01 7.49 6.41 5.96 5.11 5.96L3.47 5.96C2.86 5.96 2.86 6.89 3.47 6.89L5.11 6.89C5.40 6.89 5.60 7.08 5.60 7.36C5.60 8.29 4.12 7.39 4.12 8.30C4.12 8.88 4.77 8.78 5.11 8.78ZM3.47 3.14L3.47 3.14L5.11 3.14C5.40 3.14 5.60 3.35 5.60 3.61C5.60 4.19 4.97 4.09 4.59 4.09C3.98 4.09 3.98 5.03 4.59 5.03C5.17 5.03 5.64 5.08 6.12 4.62C7.01 3.75 6.41 2.20 5.11 2.20L3.47 2.20C2.86 2.20 2.86 3.14 3.47 3.14ZM2.06 10.19L2.06 10.19L2.06 1.26L5.28 1.26C6.57 1.26 7.59 2.32 7.59 3.61C7.59 5.08 6.47 5.25 7.01 5.84C8.25 7.10 7.43 9.72 5.29 9.72L3.47 9.72C2.86 9.72 2.86 10.67 3.47 10.67L5.29 10.67C7.91 10.67 9.44 7.64 7.95 5.49C8.36 4.90 8.53 4.24 8.53 3.58C8.53 1.82 7.20 0.31 5.28 0.31L1.58 0.31C1.33 0.31 1.12 0.53 1.12 0.78L1.12 10.19C1.12 10.81 2.06 10.81 2.06 10.19ZM15.62 2.23L15.62 2.23L12.66 2.23C12.39 2.23 12.18 2.42 12.18 2.69L12.18 4.56C12.18 4.82 12.39 5.03 12.66 5.03L14.76 5.03C15.01 5.03 15.22 4.82 15.22 4.56C15.22 4.30 15.01 4.09 14.76 4.09L13.12 4.09L13.12 3.15L15.62 3.15C15.89 3.15 16.10 2.94 16.10 2.69C16.10 2.42 15.89 2.23 15.62 2.23ZM14.76 5.96L14.76 5.96L12.66 5.96C12.39 5.96 12.18 6.17 12.18 6.43L12.18 10.18C12.18 10.43 12.39 10.64 12.66 10.64C12.91 10.64 13.12 10.43 13.12 10.18L13.12 6.90L14.76 6.90C15.01 6.90 15.22 6.69 15.22 6.43C15.22 6.17 15.01 5.96 14.76 5.96ZM11.24 10.18L11.24 10.18L11.24 1.29L15.62 1.29C15.89 1.29 16.10 1.08 16.10 0.81C16.10 0.56 15.89 0.35 15.62 0.35L10.78 0.35C10.51 0.35 10.32 0.56 10.32 0.81L10.32 10.18C10.32 10.43 10.51 10.64 10.78 10.64C11.03 10.64 11.24 10.43 11.24 10.18Z"></path></g><!----><!----></svg>